<svg width="81" height="66" viewBox="0 0 81 66" fill="none" xmlns="http://www.w3.org/2000/svg">
<rect x="1" y="3" width="79" height="62" rx="4" stroke="black" stroke-width="2"/>
<g clip-path="url(#clip0_168_5)">
<path d="M19.641 17.5771C20.2117 17.5771 20.6743 17.1069 20.6743 16.5271C20.6743 15.9472 20.2117 15.4771 19.641 15.4771C19.0703 15.4771 18.6077 15.9472 18.6077 16.5271C18.6077 17.1069 19.0703 17.5771 19.641 17.5771Z" fill="black"/>
<path d="M26.5333 17.5771C27.104 17.5771 27.5667 17.1069 27.5667 16.5271C27.5667 15.9472 27.104 15.4771 26.5333 15.4771C25.9626 15.4771 25.5 15.9472 25.5 16.5271C25.5 17.1069 25.9626 17.5771 26.5333 17.5771Z" fill="black"/>
<path d="M23.0923 17.5771C23.663 17.5771 24.1257 17.1069 24.1257 16.5271C24.1257 15.9472 23.663 15.4771 23.0923 15.4771C22.5216 15.4771 22.059 15.9472 22.059 16.5271C22.059 17.1069 22.5216 17.5771 23.0923 17.5771Z" fill="black"/>
<path d="M30.6667 31.7625L33.7667 28.6125C33.9612 28.4148 34.0706 28.1467 34.0706 27.867C34.0706 27.5874 33.9612 27.3193 33.7667 27.1215C33.5721 26.9238 33.3082 26.8127 33.033 26.8127C32.7578 26.8127 32.4939 26.9238 32.2993 27.1215L28.4553 31.038C28.2629 31.2348 28.1548 31.5009 28.1548 31.7783C28.1548 32.0557 28.2629 32.3218 28.4553 32.5185L32.2993 36.435C32.3954 36.5335 32.5097 36.6116 32.6356 36.6649C32.7615 36.7182 32.8966 36.7456 33.033 36.7456C33.1694 36.7456 33.3045 36.7182 33.4304 36.6649C33.5563 36.6116 33.6706 36.5335 33.7667 36.435C33.9591 36.2383 34.0671 35.9722 34.0671 35.6948C34.0671 35.4174 33.9591 35.1513 33.7667 34.9545L30.6667 31.7625Z" fill="black"/>
<path d="M45.464 36.414C45.6576 36.6096 45.9195 36.7193 46.1925 36.7193C46.4655 36.7193 46.7274 36.6096 46.921 36.414L50.7753 32.55C50.9678 32.3533 51.0758 32.0871 51.0758 31.8097C51.0758 31.5323 50.9678 31.2662 50.7753 31.0695L46.921 27.153C46.7264 26.9567 46.4631 26.8469 46.1888 26.8479C45.9146 26.8489 45.652 26.9605 45.4588 27.1582C45.2656 27.356 45.1576 27.6236 45.1586 27.9022C45.1596 28.1808 45.2694 28.4477 45.464 28.644L48.564 31.794L45.464 34.944C45.2747 35.1403 45.1686 35.4042 45.1686 35.679C45.1686 35.9538 45.2747 36.2177 45.464 36.414Z" fill="black"/>
<path d="M42.0333 27.4575C41.9154 27.3881 41.7851 27.343 41.65 27.325C41.5148 27.3069 41.3775 27.3162 41.2459 27.3524C41.1143 27.3885 40.9911 27.4507 40.8833 27.5354C40.7754 27.6201 40.6852 27.7257 40.6177 27.846L36.8047 34.65C36.7299 34.7695 36.6797 34.9031 36.6571 35.0429C36.6345 35.1826 36.6399 35.3255 36.673 35.4631C36.7062 35.6006 36.7664 35.7299 36.85 35.8432C36.9336 35.9565 37.0389 36.0515 37.1596 36.1223C37.2802 36.1932 37.4138 36.2385 37.5521 36.2556C37.6905 36.2727 37.8308 36.2612 37.9646 36.2217C38.0985 36.1823 38.2231 36.1157 38.3309 36.026C38.4388 35.9364 38.5277 35.8255 38.5923 35.7L42.4467 28.9275C42.5188 28.8045 42.5653 28.6677 42.5835 28.5257C42.6017 28.3837 42.5911 28.2395 42.5524 28.1018C42.5137 27.9641 42.4477 27.8359 42.3584 27.7251C42.2691 27.6143 42.1585 27.5232 42.0333 27.4575Z" fill="black"/>
<path d="M67.722 42C67.661 41.9996 67.6017 41.9802 67.5518 41.9446C67.502 41.9089 67.464 41.8587 67.443 41.8005C67.0318 40.7015 66.4491 39.6768 65.7173 38.766C65.6827 38.7151 65.6641 38.6547 65.6641 38.5928C65.6641 38.5309 65.6827 38.4704 65.7173 38.4195C66.032 37.8653 66.1174 37.2067 65.9547 36.5885C65.7919 35.9704 65.3944 35.4431 64.8493 35.1225L64.0743 34.65V15.477C64.0743 14.6416 63.7477 13.8404 63.1664 13.2496C62.585 12.6589 61.7965 12.327 60.9743 12.327H18.2667C17.4445 12.327 16.656 12.6589 16.0746 13.2496C15.4933 13.8404 15.1667 14.6416 15.1667 15.477V42.084C15.1694 42.732 15.4239 43.3527 15.8749 43.8109C16.3258 44.2691 16.9366 44.5278 17.5743 44.5305H31.7L30.6667 48.4155H29.2923C28.2859 48.4162 27.309 48.7617 26.5196 49.3962C25.7303 50.0306 25.1744 50.917 24.942 51.912H22.4C22.1259 51.912 21.8631 52.0227 21.6693 52.2196C21.4755 52.4165 21.3667 52.6835 21.3667 52.962C21.3667 53.2405 21.4755 53.5076 21.6693 53.7045C21.8631 53.9014 22.1259 54.012 22.4 54.012H48.719C48.7015 54.2629 48.7259 54.515 48.7913 54.7575C48.8688 55.0655 49.0067 55.3545 49.1967 55.6071C49.3866 55.8597 49.6248 56.0707 49.897 56.2275L52.0773 57.5085C52.348 57.6664 52.6467 57.7686 52.9563 57.8092C53.2659 57.8498 53.5803 57.8281 53.8816 57.7452C54.1829 57.6623 54.4652 57.5199 54.7123 57.3262C54.9595 57.1325 55.1666 56.8911 55.322 56.616C55.3555 56.5625 55.4036 56.52 55.4605 56.4939C55.5175 56.4678 55.5806 56.4591 55.6423 56.469C56.7775 56.6685 57.9379 56.6685 59.073 56.469C59.1358 56.4587 59.2003 56.4682 59.2576 56.4964C59.3149 56.5246 59.3623 56.57 59.3933 56.6265C59.6039 56.993 59.9059 57.2965 60.2687 57.5067C60.6315 57.7168 61.0424 57.8261 61.46 57.8235C61.8766 57.8276 62.2868 57.7189 62.6483 57.5085L64.8287 56.2275C65.0994 56.0688 65.3364 55.8572 65.5262 55.6049C65.716 55.3526 65.8547 55.0646 65.9343 54.7575C66.0166 54.4523 66.038 54.1334 65.9972 53.8196C65.9564 53.5059 65.8542 53.2036 65.6967 52.9305C65.6611 52.878 65.6421 52.8158 65.6421 52.752C65.6421 52.6883 65.6611 52.626 65.6967 52.5735C66.4262 51.665 67.0087 50.6442 67.4223 49.5495C67.442 49.4905 67.4797 49.4394 67.5298 49.4035C67.58 49.3677 67.64 49.3489 67.7013 49.35C68.3308 49.3473 68.9338 49.0919 69.3789 48.6396C69.824 48.1873 70.0753 47.5747 70.078 46.935V44.373C70.0672 43.7435 69.8149 43.143 69.3748 42.6998C68.9347 42.2565 68.3416 42.0054 67.722 42ZM17.2333 15.477C17.2333 15.1985 17.3422 14.9315 17.536 14.7346C17.7298 14.5377 17.9926 14.427 18.2667 14.427H60.9743C61.2484 14.427 61.5112 14.5377 61.705 14.7346C61.8988 14.9315 62.0077 15.1985 62.0077 15.477V18.627H17.2333V15.477ZM17.5743 42.4305C17.5295 42.4305 17.4852 42.4216 17.4438 42.4042C17.4025 42.3867 17.3649 42.3612 17.3332 42.329C17.3015 42.2969 17.2764 42.2587 17.2593 42.2166C17.2422 42.1746 17.2333 42.1295 17.2333 42.084V20.727H62.0077V33.6C61.5187 33.4681 61.0009 33.4988 60.5304 33.6878C60.0599 33.8768 59.6614 34.214 59.3933 34.65C59.3612 34.7018 59.3144 34.7425 59.2591 34.7669C59.2038 34.7913 59.1425 34.7981 59.0833 34.7865C57.9473 34.5975 56.7887 34.5975 55.6527 34.7865C55.5934 34.7996 55.5316 34.7935 55.476 34.769C55.4204 34.7445 55.3737 34.7029 55.3427 34.65C55.1874 34.3748 54.9801 34.1334 54.7327 33.9399C54.4853 33.7465 54.2026 33.6046 53.901 33.5226C53.5994 33.4407 53.2848 33.4201 52.9754 33.4622C52.6659 33.5044 52.3677 33.6083 52.098 33.768L49.9177 35.049C49.6462 35.2042 49.4084 35.4134 49.2184 35.6642C49.0284 35.915 48.8902 36.2022 48.812 36.5085C48.6468 37.1276 48.7284 37.7878 49.0393 38.346C49.077 38.3957 49.0975 38.4566 49.0975 38.5193C49.0975 38.582 49.077 38.6429 49.0393 38.6925C48.3075 39.6033 47.7248 40.628 47.3137 41.727C47.2926 41.7852 47.2547 41.8354 47.2048 41.8711C47.155 41.9067 47.0956 41.9261 47.0347 41.9265C46.5285 41.9273 46.036 42.0929 45.6293 42.399L17.5743 42.4305ZM45.1333 48.4155H32.7333L33.7667 44.5305H44.6167V46.935C44.6233 47.473 44.8049 47.9935 45.1333 48.4155ZM29.3027 50.5155H47.696C47.9322 50.9996 48.2015 51.4663 48.502 51.912H27.1223C27.3174 51.4948 27.6247 51.1423 28.0088 50.8952C28.3928 50.648 28.8378 50.5164 29.2923 50.5155H29.3027ZM68.032 46.935C68.032 47.0186 67.9993 47.0987 67.9412 47.1578C67.8831 47.2168 67.8042 47.25 67.722 47.25C67.2407 47.2512 66.7709 47.4003 66.3745 47.6776C65.978 47.9549 65.6733 48.3476 65.5003 48.804C65.17 49.6893 64.7026 50.5152 64.1157 51.2505C63.813 51.6304 63.6304 52.0943 63.5917 52.5814C63.5529 53.0686 63.6599 53.5562 63.8987 53.9805C63.9153 54.0167 63.9239 54.0561 63.9239 54.096C63.9239 54.1359 63.9153 54.1754 63.8987 54.2115C63.8897 54.2532 63.8721 54.2925 63.8472 54.3269C63.8223 54.3613 63.7905 54.3899 63.754 54.411L61.6047 55.65C61.5688 55.6703 61.5293 55.6831 61.4884 55.6878C61.4476 55.6924 61.4063 55.6888 61.3669 55.6771C61.3275 55.6653 61.2907 55.6458 61.2588 55.6195C61.2269 55.5932 61.2005 55.5608 61.181 55.524C60.9367 55.1009 60.5718 54.763 60.1346 54.5549C59.6974 54.3468 59.2083 54.2783 58.732 54.3585C57.8223 54.516 56.893 54.516 55.9833 54.3585C55.5059 54.2793 55.0161 54.3494 54.5788 54.5594C54.1414 54.7694 53.7772 55.1094 53.5343 55.5345C53.4914 55.6049 53.4237 55.6561 53.345 55.6775C53.2663 55.699 53.1825 55.6891 53.1107 55.65L50.9303 54.369C50.8938 54.3479 50.862 54.3193 50.8371 54.2849C50.8122 54.2505 50.7947 54.2112 50.7857 54.1695C50.769 54.1334 50.7604 54.0939 50.7604 54.054C50.7604 54.0141 50.769 53.9747 50.7857 53.9385C51.0216 53.5134 51.127 53.0263 51.0884 52.5398C51.0497 52.0533 50.8687 51.5897 50.5687 51.2085C49.9765 50.4751 49.5053 49.6488 49.1737 48.762C49.0003 48.3176 48.7 47.9361 48.3115 47.6666C47.9229 47.3971 47.4638 47.252 46.9933 47.25C46.9111 47.25 46.8323 47.2168 46.7741 47.1578C46.716 47.0987 46.6833 47.0186 46.6833 46.935V44.373C46.6819 44.3313 46.6889 44.2896 46.704 44.2508C46.7191 44.2119 46.7418 44.1766 46.7709 44.147C46.8 44.1175 46.8347 44.0943 46.873 44.079C46.9113 44.0637 46.9522 44.0566 46.9933 44.058C47.4732 44.0561 47.9413 43.9067 48.336 43.6293C48.7307 43.3519 49.0336 42.9596 49.2047 42.504C49.534 41.6161 50.0053 40.7895 50.5997 40.0575C50.8997 39.6764 51.0807 39.2128 51.1194 38.7263C51.158 38.2398 51.0526 37.7527 50.8167 37.3275C50.7998 37.2896 50.7911 37.2484 50.7911 37.2068C50.7911 37.1651 50.7998 37.124 50.8167 37.086C50.8251 37.0454 50.8424 37.0073 50.8675 36.9746C50.8926 36.9418 50.9247 36.9153 50.9613 36.897L53.1417 35.616C53.1924 35.6017 53.246 35.6017 53.2967 35.616C53.3484 35.6167 53.3991 35.6305 53.4442 35.6562C53.4893 35.6818 53.5274 35.7186 53.555 35.763C53.7989 36.1871 54.1633 36.5263 54.6004 36.7362C55.0374 36.946 55.5267 37.0167 56.004 36.939C56.9137 36.7816 57.843 36.7816 58.7527 36.939C59.2331 37.005 59.722 36.922 60.1553 36.7009C60.5886 36.4798 60.9461 36.131 61.181 35.7C61.2012 35.6654 61.228 35.6352 61.2597 35.6111C61.2915 35.5871 61.3277 35.5696 61.3661 35.5599C61.4045 35.5501 61.4445 35.5482 61.4837 35.5542C61.5229 35.5603 61.5605 35.5741 61.5943 35.595L63.7747 36.876C63.8113 36.8943 63.8434 36.9208 63.8685 36.9536C63.8935 36.9863 63.9109 37.0244 63.9193 37.065C63.9362 37.103 63.9449 37.1441 63.9449 37.1858C63.9449 37.2274 63.9362 37.2686 63.9193 37.3065C63.6815 37.7292 63.5749 38.2151 63.6137 38.7004C63.6524 39.1857 63.8346 39.6478 64.1363 40.026C64.7235 40.765 65.1909 41.5945 65.521 42.483C65.6839 42.9471 65.9814 43.3501 66.3744 43.6388C66.7674 43.9275 67.2372 44.0883 67.722 44.1C67.7631 44.0986 67.8041 44.1057 67.8423 44.121C67.8806 44.1363 67.9153 44.1595 67.9444 44.189C67.9735 44.2186 67.9963 44.2539 68.0113 44.2928C68.0264 44.3316 68.0334 44.3733 68.032 44.415V46.935Z" fill="black"/>
<path d="M57.3577 40.887C56.4298 40.887 55.5228 41.1665 54.7513 41.6903C53.9798 42.2142 53.3785 42.9587 53.0234 43.8297C52.6684 44.7008 52.5755 45.6593 52.7565 46.584C52.9375 47.5087 53.3843 48.3581 54.0404 49.0247C54.6965 49.6914 55.5324 50.1454 56.4424 50.3294C57.3525 50.5133 58.2957 50.4189 59.153 50.0581C60.0102 49.6973 60.7429 49.0863 61.2584 48.3024C61.7739 47.5184 62.049 46.5968 62.049 45.654C62.049 44.3897 61.5547 43.1772 60.6749 42.2832C59.7951 41.3892 58.6019 40.887 57.3577 40.887ZM57.3577 48.321C56.8386 48.321 56.3311 48.1645 55.8995 47.8715C55.4679 47.5784 55.1314 47.1619 54.9328 46.6746C54.7341 46.1872 54.6822 45.651 54.7834 45.1337C54.8847 44.6163 55.1347 44.1411 55.5017 43.7681C55.8688 43.3951 56.3365 43.1411 56.8456 43.0382C57.3548 42.9353 57.8825 42.9881 58.3621 43.19C58.8417 43.3918 59.2516 43.7337 59.54 44.1723C59.8284 44.6108 59.9823 45.1265 59.9823 45.654C59.9769 46.3577 59.698 47.0306 59.2063 47.5263C58.7147 48.0219 58.0502 48.3 57.3577 48.3V48.321Z" fill="black"/>
</g>
<defs>
<clipPath id="clip0_168_5">
<rect width="62" height="63" fill="white" transform="translate(10)"/>
</clipPath>
</defs>
</svg>
