<svg width="81" height="63" viewBox="0 0 81 63" fill="none" xmlns="http://www.w3.org/2000/svg">
<rect x="1" y="1" width="79" height="61" rx="4" stroke="black" stroke-width="2"/>
<g clip-path="url(#clip0_168_2)">
<mask id="path-2-inside-1_168_2" fill="white">
<path fill-rule="evenodd" clip-rule="evenodd" d="M19.2625 53.8369C19.057 53.8369 18.8877 53.6685 18.8877 53.4604C18.8877 53.255 19.0571 53.0869 19.2625 53.0869H50.8672C51.0726 53.0869 51.242 53.255 51.242 53.4604C51.242 53.6685 51.0726 53.8369 50.8672 53.8369H19.2625ZM37.7686 55C37.5615 55 37.3941 54.8319 37.3941 54.6236C37.3941 54.4155 37.5615 54.2472 37.7686 54.2472H59.6387C59.8445 54.2472 60.0135 54.4155 60.0135 54.6236C60.0135 54.8319 59.8445 55 59.6387 55H37.7686ZM61.8766 55C61.6712 55 61.5021 54.8319 61.5021 54.6236C61.5021 54.4155 61.6711 54.2472 61.8766 54.2472H64.6113C64.8184 54.2472 64.9858 54.4155 64.9858 54.6236C64.9858 54.8319 64.8185 55 64.6113 55H61.8766ZM18.0195 54.9663C17.8121 54.9663 17.6446 54.7949 17.6446 54.5898C17.6446 54.3818 17.812 54.2134 18.0195 54.2134H28.3817C28.5872 54.2134 28.7562 54.3818 28.7562 54.5898C28.7562 54.795 28.5872 54.9663 28.3817 54.9663H18.0195ZM16.6636 29.4591C16.6636 29.6674 16.4961 29.8358 16.2887 29.8358C16.0816 29.8358 15.9142 29.6674 15.9142 29.4591V18.4814C15.9142 17.7893 16.1975 17.1587 16.6513 16.6995C17.11 16.2403 17.736 15.9586 18.4248 15.9586H22.099C22.3046 15.9586 22.4736 16.127 22.4736 16.3351C22.4736 16.5433 22.3046 16.7117 22.099 16.7117H18.4246C17.9402 16.7117 17.4997 16.9106 17.1816 17.229C16.8614 17.5505 16.6636 17.9943 16.6636 18.4813V29.4591ZM40.8278 14.6759L42.4182 13.8831L40.8278 12.2852L39.2373 13.8831L40.8278 14.6759ZM40.8278 7.72967C44.8677 7.72967 48.1416 11.0176 48.1416 15.0771C48.1416 17.5967 46.8818 19.8191 44.9594 21.1415V24.2979C44.9594 25.3723 44.0851 26.2508 43.0139 26.2508H41.2028V15.325L44.7904 13.5403C44.9745 13.4483 45.0507 13.2219 44.9594 13.0381C44.8677 12.8514 44.6457 12.7749 44.4595 12.8667L43.1249 13.5311L41.0928 11.4891C40.9464 11.3422 40.7088 11.3422 40.5627 11.4891L38.5287 13.5311L37.1946 12.8667C37.0101 12.7748 36.7848 12.8514 36.6947 13.0381C36.6035 13.2219 36.6781 13.4483 36.8637 13.5403L40.4529 15.325V26.2508H38.6402C37.5707 26.2508 36.6947 25.3723 36.6947 24.2979V21.1415C34.7738 19.8191 33.5125 17.5967 33.5125 15.0771C33.5125 11.0177 36.7875 7.72967 40.8278 7.72967ZM46.2495 4.90723C46.3531 4.7264 46.5817 4.66518 46.7602 4.76922C46.9383 4.87349 46.999 5.10305 46.897 5.2808L45.7577 7.26454C45.6541 7.44196 45.4256 7.5033 45.2486 7.39903C45.0689 7.29498 45.0082 7.06532 45.1117 6.8879L46.2495 4.90723ZM50.5928 8.99715C50.7725 8.8931 51.001 8.95433 51.1015 9.13493C51.205 9.31246 51.1426 9.54201 50.9646 9.64605L48.9932 10.788C48.8152 10.8921 48.5866 10.8308 48.4843 10.6501C48.3823 10.4727 48.4435 10.2432 48.6215 10.1389L50.5928 8.99715ZM52.3174 14.7157C52.5245 14.7157 52.6919 14.887 52.6919 15.0922C52.6919 15.3005 52.5245 15.4688 52.3174 15.4688H50.0414C49.8355 15.4688 49.6665 15.3005 49.6665 15.0922C49.6665 14.8869 49.8355 14.7157 50.0414 14.7157H52.3174ZM35.1058 5.2808C35.0022 5.10316 35.0634 4.87349 35.2414 4.76922C35.4196 4.66518 35.648 4.7264 35.7516 4.90723L36.8898 6.8879C36.9918 7.06543 36.9306 7.29498 36.7542 7.39903C36.5744 7.5033 36.346 7.44196 36.2424 7.26454L35.1058 5.2808ZM31.0354 9.64594C30.8572 9.5419 30.7962 9.31223 30.8982 9.13174C31.0017 8.95421 31.2303 8.89299 31.4099 8.99703L33.3812 10.1389C33.5581 10.2432 33.6188 10.4727 33.5168 10.6533C33.4133 10.8308 33.1847 10.8921 33.0067 10.788L31.0354 9.64594ZM29.6825 15.4689C29.4754 15.4689 29.3076 15.3006 29.3076 15.0923C29.3076 14.887 29.4755 14.7159 29.6825 14.7159H31.9585C32.1656 14.7159 32.333 14.8871 32.333 15.0923C32.333 15.3006 32.1656 15.4689 31.9585 15.4689H29.6825ZM40.4684 3.37033C40.4699 3.16224 40.6389 2.99686 40.8445 3.00005C41.0503 3.003 41.2146 3.17144 41.213 3.37953L41.1871 5.32658C41.1839 5.53466 41.0149 5.70016 40.8094 5.69709C40.6036 5.69709 40.4393 5.52558 40.4409 5.32056L40.4684 3.37033ZM42.3861 30.347V31.899H39.2679V30.347H38.2166V28.7948H37.1657V27.2428H44.4884V28.7948H43.4376V30.347H42.3861ZM29.1831 32.9981H52.8169V36.1698H29.1831V32.9981ZM33.5717 46.5139V48.6569H48.4296V46.5139H33.5717ZM15 46.5139H18.1869C18.033 46.511 17.9096 46.3854 17.9096 46.2293V20.0425C17.9096 18.8609 18.8709 17.8965 20.0456 17.8965H33.267C33.3876 18.224 33.5308 18.5425 33.6923 18.8486C33.9969 19.4332 34.3714 19.9751 34.8043 20.4618H20.655V43.9487H61.3466V20.4618H46.8481C47.2825 19.9751 47.657 19.4332 47.9633 18.8486C48.1248 18.5425 48.2665 18.224 48.387 17.8965H61.9544C63.1291 17.8965 64.0904 18.8608 64.0904 20.0425V46.5141H67V49.1408L53.3137 51.7826H28.6879L15 49.1407V46.5139Z"/>
</mask>
<path fill-rule="evenodd" clip-rule="evenodd" d="M19.2625 53.8369C19.057 53.8369 18.8877 53.6685 18.8877 53.4604C18.8877 53.255 19.0571 53.0869 19.2625 53.0869H50.8672C51.0726 53.0869 51.242 53.255 51.242 53.4604C51.242 53.6685 51.0726 53.8369 50.8672 53.8369H19.2625ZM37.7686 55C37.5615 55 37.3941 54.8319 37.3941 54.6236C37.3941 54.4155 37.5615 54.2472 37.7686 54.2472H59.6387C59.8445 54.2472 60.0135 54.4155 60.0135 54.6236C60.0135 54.8319 59.8445 55 59.6387 55H37.7686ZM61.8766 55C61.6712 55 61.5021 54.8319 61.5021 54.6236C61.5021 54.4155 61.6711 54.2472 61.8766 54.2472H64.6113C64.8184 54.2472 64.9858 54.4155 64.9858 54.6236C64.9858 54.8319 64.8185 55 64.6113 55H61.8766ZM18.0195 54.9663C17.8121 54.9663 17.6446 54.7949 17.6446 54.5898C17.6446 54.3818 17.812 54.2134 18.0195 54.2134H28.3817C28.5872 54.2134 28.7562 54.3818 28.7562 54.5898C28.7562 54.795 28.5872 54.9663 28.3817 54.9663H18.0195ZM16.6636 29.4591C16.6636 29.6674 16.4961 29.8358 16.2887 29.8358C16.0816 29.8358 15.9142 29.6674 15.9142 29.4591V18.4814C15.9142 17.7893 16.1975 17.1587 16.6513 16.6995C17.11 16.2403 17.736 15.9586 18.4248 15.9586H22.099C22.3046 15.9586 22.4736 16.127 22.4736 16.3351C22.4736 16.5433 22.3046 16.7117 22.099 16.7117H18.4246C17.9402 16.7117 17.4997 16.9106 17.1816 17.229C16.8614 17.5505 16.6636 17.9943 16.6636 18.4813V29.4591ZM40.8278 14.6759L42.4182 13.8831L40.8278 12.2852L39.2373 13.8831L40.8278 14.6759ZM40.8278 7.72967C44.8677 7.72967 48.1416 11.0176 48.1416 15.0771C48.1416 17.5967 46.8818 19.8191 44.9594 21.1415V24.2979C44.9594 25.3723 44.0851 26.2508 43.0139 26.2508H41.2028V15.325L44.7904 13.5403C44.9745 13.4483 45.0507 13.2219 44.9594 13.0381C44.8677 12.8514 44.6457 12.7749 44.4595 12.8667L43.1249 13.5311L41.0928 11.4891C40.9464 11.3422 40.7088 11.3422 40.5627 11.4891L38.5287 13.5311L37.1946 12.8667C37.0101 12.7748 36.7848 12.8514 36.6947 13.0381C36.6035 13.2219 36.6781 13.4483 36.8637 13.5403L40.4529 15.325V26.2508H38.6402C37.5707 26.2508 36.6947 25.3723 36.6947 24.2979V21.1415C34.7738 19.8191 33.5125 17.5967 33.5125 15.0771C33.5125 11.0177 36.7875 7.72967 40.8278 7.72967ZM46.2495 4.90723C46.3531 4.7264 46.5817 4.66518 46.7602 4.76922C46.9383 4.87349 46.999 5.10305 46.897 5.2808L45.7577 7.26454C45.6541 7.44196 45.4256 7.5033 45.2486 7.39903C45.0689 7.29498 45.0082 7.06532 45.1117 6.8879L46.2495 4.90723ZM50.5928 8.99715C50.7725 8.8931 51.001 8.95433 51.1015 9.13493C51.205 9.31246 51.1426 9.54201 50.9646 9.64605L48.9932 10.788C48.8152 10.8921 48.5866 10.8308 48.4843 10.6501C48.3823 10.4727 48.4435 10.2432 48.6215 10.1389L50.5928 8.99715ZM52.3174 14.7157C52.5245 14.7157 52.6919 14.887 52.6919 15.0922C52.6919 15.3005 52.5245 15.4688 52.3174 15.4688H50.0414C49.8355 15.4688 49.6665 15.3005 49.6665 15.0922C49.6665 14.8869 49.8355 14.7157 50.0414 14.7157H52.3174ZM35.1058 5.2808C35.0022 5.10316 35.0634 4.87349 35.2414 4.76922C35.4196 4.66518 35.648 4.7264 35.7516 4.90723L36.8898 6.8879C36.9918 7.06543 36.9306 7.29498 36.7542 7.39903C36.5744 7.5033 36.346 7.44196 36.2424 7.26454L35.1058 5.2808ZM31.0354 9.64594C30.8572 9.5419 30.7962 9.31223 30.8982 9.13174C31.0017 8.95421 31.2303 8.89299 31.4099 8.99703L33.3812 10.1389C33.5581 10.2432 33.6188 10.4727 33.5168 10.6533C33.4133 10.8308 33.1847 10.8921 33.0067 10.788L31.0354 9.64594ZM29.6825 15.4689C29.4754 15.4689 29.3076 15.3006 29.3076 15.0923C29.3076 14.887 29.4755 14.7159 29.6825 14.7159H31.9585C32.1656 14.7159 32.333 14.8871 32.333 15.0923C32.333 15.3006 32.1656 15.4689 31.9585 15.4689H29.6825ZM40.4684 3.37033C40.4699 3.16224 40.6389 2.99686 40.8445 3.00005C41.0503 3.003 41.2146 3.17144 41.213 3.37953L41.1871 5.32658C41.1839 5.53466 41.0149 5.70016 40.8094 5.69709C40.6036 5.69709 40.4393 5.52558 40.4409 5.32056L40.4684 3.37033ZM42.3861 30.347V31.899H39.2679V30.347H38.2166V28.7948H37.1657V27.2428H44.4884V28.7948H43.4376V30.347H42.3861ZM29.1831 32.9981H52.8169V36.1698H29.1831V32.9981ZM33.5717 46.5139V48.6569H48.4296V46.5139H33.5717ZM15 46.5139H18.1869C18.033 46.511 17.9096 46.3854 17.9096 46.2293V20.0425C17.9096 18.8609 18.8709 17.8965 20.0456 17.8965H33.267C33.3876 18.224 33.5308 18.5425 33.6923 18.8486C33.9969 19.4332 34.3714 19.9751 34.8043 20.4618H20.655V43.9487H61.3466V20.4618H46.8481C47.2825 19.9751 47.657 19.4332 47.9633 18.8486C48.1248 18.5425 48.2665 18.224 48.387 17.8965H61.9544C63.1291 17.8965 64.0904 18.8608 64.0904 20.0425V46.5141H67V49.1408L53.3137 51.7826H28.6879L15 49.1407V46.5139Z" fill="white" stroke="black" stroke-width="20" mask="url(#path-2-inside-1_168_2)"/>
</g>
<defs>
<clipPath id="clip0_168_2">
<rect width="53" height="53" fill="white" transform="translate(15)"/>
</clipPath>
</defs>
</svg>
