<svg width="54" height="16" viewBox="0 0 54 16" fill="none" xmlns="http://www.w3.org/2000/svg">
<path d="M6.2 15.12C5.17333 15.12 4.25333 14.8933 3.44 14.44C2.64 13.9867 2.00667 13.3533 1.54 12.54C1.07333 11.7267 0.84 10.78 0.84 9.7C0.84 8.62 1.07333 7.68 1.54 6.88C2.00667 6.06667 2.64 5.43333 3.44 4.98C4.25333 4.52667 5.17333 4.3 6.2 4.3C7.09333 4.3 7.9 4.5 8.62 4.9C9.34 5.3 9.91333 5.9 10.34 6.7C10.78 7.5 11 8.5 11 9.7C11 10.9 10.7867 11.9 10.36 12.7C9.94667 13.5 9.38 14.1067 8.66 14.52C7.94 14.92 7.12 15.12 6.2 15.12ZM6.36 13.44C7.02667 13.44 7.62667 13.2867 8.16 12.98C8.70667 12.6733 9.13333 12.24 9.44 11.68C9.76 11.1067 9.92 10.4467 9.92 9.7C9.92 8.94 9.76 8.28667 9.44 7.74C9.13333 7.18 8.70667 6.74667 8.16 6.44C7.62667 6.13333 7.02667 5.98 6.36 5.98C5.68 5.98 5.07333 6.13333 4.54 6.44C4.00667 6.74667 3.58 7.18 3.26 7.74C2.94 8.28667 2.78 8.94 2.78 9.7C2.78 10.4467 2.94 11.1067 3.26 11.68C3.58 12.24 4.00667 12.6733 4.54 12.98C5.07333 13.2867 5.68 13.44 6.36 13.44ZM9.98 15V12.14L10.1 9.68L9.9 7.22V0.159999H11.82V15H9.98ZM19.9128 15.12C19.0061 15.12 18.2061 14.9533 17.5128 14.62C16.8328 14.2867 16.2995 13.78 15.9128 13.1C15.5395 12.4067 15.3528 11.54 15.3528 10.5V4.4H17.2728V10.28C17.2728 11.32 17.5195 12.1 18.0128 12.62C18.5195 13.14 19.2261 13.4 20.1328 13.4C20.7995 13.4 21.3795 13.2667 21.8728 13C22.3661 12.72 22.7461 12.32 23.0128 11.8C23.2795 11.2667 23.4128 10.6267 23.4128 9.88V4.4H25.3328V15H23.5128V12.14L23.8128 12.9C23.4661 13.6067 22.9461 14.1533 22.2528 14.54C21.5595 14.9267 20.7795 15.12 19.9128 15.12ZM35.6394 15.12C35.266 15.12 34.946 14.9933 34.6794 14.74C34.4127 14.4733 34.2794 14.14 34.2794 13.74C34.2794 13.34 34.4127 13.0133 34.6794 12.76C34.946 12.5067 35.266 12.38 35.6394 12.38C35.9994 12.38 36.306 12.5067 36.5594 12.76C36.826 13.0133 36.9594 13.34 36.9594 13.74C36.9594 14.14 36.826 14.4733 36.5594 14.74C36.306 14.9933 35.9994 15.12 35.6394 15.12ZM51.9089 15.12C51.5356 15.12 51.2156 14.9933 50.9489 14.74C50.6822 14.4733 50.5489 14.14 50.5489 13.74C50.5489 13.34 50.6822 13.0133 50.9489 12.76C51.2156 12.5067 51.5356 12.38 51.9089 12.38C52.2689 12.38 52.5756 12.5067 52.8289 12.76C53.0956 13.0133 53.2289 13.34 53.2289 13.74C53.2289 14.14 53.0956 14.4733 52.8289 14.74C52.5756 14.9933 52.2689 15.12 51.9089 15.12Z" fill="black"/>
<path d="M29.268 15V0.999999H31.268V15H29.268ZM42.7706 15V2.74H37.9706V0.999999H49.5506V2.74H44.7506V15H42.7706Z" fill="#2137FF"/>
</svg>
