<svg width="179" height="44" viewBox="0 0 179 44" fill="none" xmlns="http://www.w3.org/2000/svg">
<path d="M111.5 30C110.837 30 110.201 30.2634 109.732 30.7322C109.263 31.2011 109 31.837 109 32.5C109 33.163 109.263 33.7989 109.732 34.2678C110.201 34.7366 110.837 35 111.5 35L111.5 32.5V30Z" fill="#2137FF"/>
<path d="M111.507 35.0071C112.17 35.0071 112.806 34.7437 113.275 34.2748C113.744 33.806 114.007 33.1701 114.007 32.5071C114.007 31.844 113.744 31.2082 113.275 30.7393C112.806 30.2705 112.17 30.0071 111.507 30.0071L111.507 32.5071V35.0071Z" fill="black"/>
<path d="M7.21023 35L1.22727 15.3636L4.39773 15.3636L8.64205 30.3977L8.84659 30.3977L13.0398 15.3636L16.2614 15.3636L20.4034 30.3466L20.608 30.3466L24.8523 15.3636L28.0227 15.3636L22.0398 35L19.0739 35L14.7784 19.9148L14.4716 19.9148L10.1761 35L7.21023 35ZM39.3207 35.4091C37.5479 35.4091 35.9925 34.9872 34.6545 34.1435C33.3249 33.2997 32.2852 32.1193 31.5352 30.6023C30.7937 29.0852 30.4229 27.3125 30.4229 25.2841C30.4229 23.2386 30.7937 21.4531 31.5352 19.9276C32.2852 18.402 33.3249 17.2173 34.6545 16.3736C35.9925 15.5298 37.5479 15.108 39.3207 15.108C41.0934 15.108 42.6445 15.5298 43.9741 16.3736C45.3121 17.2173 46.3519 18.402 47.0934 19.9276C47.8434 21.4531 48.2184 23.2386 48.2184 25.2841C48.2184 27.3125 47.8434 29.0852 47.0934 30.6023C46.3519 32.1193 45.3121 33.2997 43.9741 34.1435C42.6445 34.9872 41.0934 35.4091 39.3207 35.4091ZM39.3207 32.6989C40.6673 32.6989 41.7752 32.3537 42.6445 31.6634C43.5138 30.973 44.1573 30.0653 44.5749 28.9403C44.9925 27.8153 45.2014 26.5966 45.2014 25.2841C45.2014 23.9716 44.9925 22.7486 44.5749 21.6151C44.1573 20.4815 43.5138 19.5653 42.6445 18.8665C41.7752 18.1676 40.6673 17.8182 39.3207 17.8182C37.9741 17.8182 36.8661 18.1676 35.9968 18.8665C35.1275 19.5653 34.484 20.4815 34.0664 21.6151C33.6488 22.7486 33.44 23.9716 33.44 25.2841C33.44 26.5966 33.6488 27.8153 34.0664 28.9403C34.484 30.0653 35.1275 30.973 35.9968 31.6634C36.8661 32.3537 37.9741 32.6989 39.3207 32.6989ZM55.8409 8.81818L55.8409 35L52.8239 35L52.8239 8.81818L55.8409 8.81818ZM70.1112 15.3636L70.1112 17.9205L59.5259 17.9205L59.5259 15.3636L70.1112 15.3636ZM62.6964 35L62.6964 12.6534C62.6964 11.5284 62.9606 10.5909 63.489 9.84091C64.0174 9.09091 64.7035 8.52841 65.5472 8.15341C66.391 7.77841 67.2816 7.59091 68.2191 7.59091C68.9606 7.59091 69.5657 7.65057 70.0344 7.76989C70.5032 7.8892 70.8526 8 71.0827 8.10227L70.2134 10.7102C70.06 10.6591 69.8469 10.5952 69.5742 10.5185C69.31 10.4418 68.9606 10.4034 68.5259 10.4034C67.5288 10.4034 66.8086 10.6548 66.3654 11.1577C65.9308 11.6605 65.7134 12.3977 65.7134 13.3693L65.7134 35L62.6964 35ZM83.0838 15.3636L83.0838 17.9205L72.4986 17.9205L72.4986 15.3636L83.0838 15.3636ZM75.669 35L75.669 12.6534C75.669 11.5284 75.9332 10.5909 76.4616 9.84091C76.9901 9.09091 77.6761 8.52841 78.5199 8.15341C79.3636 7.77841 80.2543 7.59091 81.1918 7.59091C81.9332 7.59091 82.5384 7.65057 83.0071 7.76989C83.4759 7.8892 83.8253 8 84.0554 8.10227L83.1861 10.7102C83.0327 10.6591 82.8196 10.5952 82.5469 10.5185C82.2827 10.4418 81.9332 10.4034 81.4986 10.4034C80.5014 10.4034 79.7813 10.6548 79.3381 11.1577C78.9034 11.6605 78.6861 12.3977 78.6861 13.3693L78.6861 35L75.669 35ZM94.4808 35.4091C92.7081 35.4091 91.1527 34.9872 89.8146 34.1435C88.4851 33.2997 87.4453 32.1193 86.6953 30.6023C85.9538 29.0852 85.5831 27.3125 85.5831 25.2841C85.5831 23.2386 85.9538 21.4531 86.6953 19.9276C87.4453 18.402 88.4851 17.2173 89.8146 16.3736C91.1527 15.5298 92.7081 15.108 94.4808 15.108C96.2536 15.108 97.8047 15.5298 99.1342 16.3736C100.472 17.2173 101.512 18.402 102.254 19.9276C103.004 21.4531 103.379 23.2386 103.379 25.2841C103.379 27.3125 103.004 29.0852 102.254 30.6023C101.512 32.1193 100.472 33.2997 99.1342 34.1435C97.8047 34.9872 96.2536 35.4091 94.4808 35.4091ZM94.4808 32.6989C95.8274 32.6989 96.9354 32.3537 97.8047 31.6634C98.674 30.973 99.3175 30.0653 99.7351 28.9403C100.153 27.8153 100.362 26.5966 100.362 25.2841C100.362 23.9716 100.153 22.7486 99.7351 21.6151C99.3175 20.4815 98.674 19.5653 97.8047 18.8665C96.9354 18.1676 95.8274 17.8182 94.4808 17.8182C93.1342 17.8182 92.0263 18.1676 91.157 18.8665C90.2876 19.5653 89.6442 20.4815 89.2266 21.6151C88.8089 22.7486 88.6001 23.9716 88.6001 25.2841C88.6001 26.5966 88.8089 27.8153 89.2266 28.9403C89.6442 30.0653 90.2876 30.973 91.157 31.6634C92.0263 32.3537 93.1342 32.6989 94.4808 32.6989Z" fill="black"/>
<path d="M125.524 35.4091C123.887 35.4091 122.443 34.9957 121.19 34.169C119.937 33.3338 118.957 32.1577 118.25 30.6406C117.542 29.1151 117.189 27.3125 117.189 25.233C117.189 23.1705 117.542 21.3807 118.25 19.8636C118.957 18.3466 119.941 17.1747 121.203 16.348C122.464 15.5213 123.922 15.108 125.575 15.108C126.853 15.108 127.863 15.321 128.605 15.7472C129.355 16.1648 129.926 16.642 130.318 17.179C130.718 17.7074 131.029 18.142 131.251 18.483L131.507 18.483L131.507 8.81818L134.524 8.81818L134.524 35L131.609 35L131.609 31.983L131.251 31.983C131.029 32.3409 130.714 32.7926 130.305 33.3381C129.896 33.875 129.312 34.3565 128.554 34.7827C127.795 35.2003 126.785 35.4091 125.524 35.4091ZM125.933 32.6989C127.143 32.6989 128.166 32.3835 129.001 31.7528C129.836 31.1136 130.471 30.2315 130.906 29.1065C131.341 27.973 131.558 26.6648 131.558 25.1818C131.558 23.7159 131.345 22.4332 130.919 21.3338C130.493 20.2259 129.862 19.3651 129.027 18.7514C128.191 18.1293 127.16 17.8182 125.933 17.8182C124.654 17.8182 123.589 18.1463 122.737 18.8026C121.893 19.4503 121.258 20.3324 120.832 21.4489C120.414 22.5568 120.206 23.8011 120.206 25.1818C120.206 26.5795 120.419 27.8494 120.845 28.9915C121.279 30.125 121.919 31.0284 122.762 31.7017C123.615 32.3665 124.672 32.6989 125.933 32.6989ZM148.701 35.4091C146.809 35.4091 145.177 34.9915 143.805 34.1562C142.441 33.3125 141.389 32.1364 140.647 30.6278C139.914 29.1108 139.548 27.3466 139.548 25.3352C139.548 23.3239 139.914 21.5511 140.647 20.017C141.389 18.4744 142.42 17.2727 143.741 16.4119C145.071 15.5426 146.622 15.108 148.395 15.108C149.417 15.108 150.427 15.2784 151.424 15.6193C152.422 15.9602 153.329 16.5142 154.147 17.2812C154.966 18.0398 155.618 19.0455 156.103 20.2983C156.589 21.5511 156.832 23.0937 156.832 24.9261L156.832 26.2045L141.696 26.2045L141.696 23.5966L153.764 23.5966C153.764 22.4886 153.542 21.5 153.099 20.6307C152.664 19.7614 152.042 19.0753 151.233 18.5724C150.431 18.0696 149.485 17.8182 148.395 17.8182C147.193 17.8182 146.153 18.1165 145.275 18.7131C144.406 19.3011 143.737 20.0682 143.268 21.0142C142.799 21.9602 142.565 22.9744 142.565 24.0568L142.565 25.7955C142.565 27.2784 142.821 28.5355 143.332 29.5668C143.852 30.5895 144.572 31.3693 145.493 31.9062C146.413 32.4347 147.483 32.6989 148.701 32.6989C149.494 32.6989 150.21 32.5881 150.849 32.3665C151.497 32.1364 152.055 31.7955 152.524 31.3437C152.993 30.8835 153.355 30.3125 153.61 29.6307L156.525 30.4489C156.218 31.4375 155.703 32.3068 154.978 33.0568C154.254 33.7983 153.359 34.3778 152.294 34.7955C151.228 35.2045 150.031 35.4091 148.701 35.4091ZM176.881 15.3636L169.619 35L166.551 35L159.29 15.3636L162.563 15.3636L167.983 31.0114L168.188 31.0114L173.608 15.3636L176.881 15.3636Z" fill="#2137FF"/>
</svg>
