<svg width="81" height="65" viewBox="0 0 81 65" fill="none" xmlns="http://www.w3.org/2000/svg">
<rect x="1" y="1" width="79" height="63" rx="4" stroke="black" stroke-width="2"/>
<path d="M60.2376 49.7157H18.7624C16.7836 49.7157 15.1738 48.0452 15.1738 45.9917V42.7333C15.1738 42.4366 15.4056 42.1962 15.6914 42.1962H63.3086C63.5945 42.1962 63.8262 42.4366 63.8262 42.7333V45.9917C63.8262 48.0452 62.2163 49.7157 60.2376 49.7157ZM16.209 43.2704V45.9917C16.209 47.4529 17.3544 48.6415 18.7624 48.6415H60.2377C61.6457 48.6415 62.7911 47.4529 62.7911 45.9917V43.2704H16.209Z" fill="black" stroke="black"/>
<path d="M63.3086 43.2704H15.6914C15.4056 43.2704 15.1738 43.03 15.1738 42.7333V18.7245C15.1738 16.2664 17.101 14.2665 19.4697 14.2665H37.4817C37.7675 14.2665 37.9992 14.507 37.9992 14.8036C37.9992 15.1002 37.7675 15.3407 37.4817 15.3407H19.4697C17.6718 15.3407 16.209 16.8587 16.209 18.7245V42.1962H62.791V18.7245C62.791 16.8587 61.3282 15.3407 59.5303 15.3407H47.7292C47.4433 15.3407 47.2116 15.1002 47.2116 14.8036C47.2116 14.507 47.4433 14.2665 47.7292 14.2665H59.5303C61.899 14.2665 63.8262 16.2664 63.8262 18.7245V42.7333C63.8262 43.03 63.5945 43.2704 63.3086 43.2704Z" fill="black" stroke="black"/>
<path d="M31.3749 26.9951C31.2396 26.9951 31.1074 26.94 31.0088 26.8378C30.8741 26.6981 30.8244 26.493 30.8791 26.3037L33.075 18.7079C33.0996 18.6228 33.1441 18.5453 33.2047 18.4825L45.2822 5.94923C46.0642 5.13766 47.1041 4.69067 48.2099 4.69067C49.316 4.69067 50.3557 5.13766 51.1377 5.94923C51.9199 6.7608 52.3506 7.83985 52.3506 8.98755C52.3506 10.1354 51.9199 11.2143 51.1377 12.026L39.0605 24.5591C38.9999 24.6219 38.9253 24.6682 38.8432 24.6937L31.5236 26.9724C31.4746 26.9878 31.4245 26.9951 31.3749 26.9951ZM34.0289 19.1462L32.1468 25.657L38.4207 23.7037L50.4059 11.2663C50.9924 10.6575 51.3155 9.84832 51.3155 8.98755C51.3155 8.12678 50.9924 7.31746 50.4059 6.70881C49.8194 6.10005 49.0395 5.76489 48.2099 5.76489C47.3804 5.76489 46.6006 6.10016 46.014 6.70881L34.0289 19.1462Z" fill="black" stroke="black"/>
<path d="M35.4006 22.0375C34.8041 22.0375 34.2078 21.802 33.7536 21.3308C32.8456 20.3884 32.8456 18.855 33.7536 17.9126C33.9557 17.7029 34.2834 17.7029 34.4856 17.9126C34.6878 18.1224 34.6878 18.4624 34.4856 18.6722C33.9811 19.1958 33.9811 20.0476 34.4856 20.5712C34.9901 21.0948 35.811 21.0948 36.3156 20.5712C36.5178 20.3615 36.8454 20.3616 37.0475 20.5712C37.2497 20.781 37.2497 21.1211 37.0475 21.3308C36.5935 21.802 35.997 22.0375 35.4006 22.0375Z" fill="black" stroke="black"/>
<path d="M37.9625 24.6974C37.3403 24.6974 36.7555 24.4459 36.3155 23.9895C35.8756 23.533 35.6334 22.926 35.6334 22.2804C35.6334 21.6348 35.8757 21.0277 36.3155 20.5713L42.7571 13.8868C42.9591 13.6771 43.287 13.6771 43.489 13.8868C43.6911 14.0966 43.6911 14.4367 43.489 14.6463L37.0475 21.3309C36.8031 21.5845 36.6684 21.9217 36.6684 22.2804C36.6684 22.639 36.803 22.9763 37.0475 23.2298C37.2919 23.4834 37.6168 23.6232 37.9624 23.6232C38.308 23.6232 38.6329 23.4835 38.8773 23.2298C39.0794 23.0201 39.4072 23.0201 39.6093 23.2298C39.8115 23.4396 39.8115 23.7796 39.6094 23.9894C39.1696 24.4459 38.5846 24.6974 37.9625 24.6974Z" fill="black" stroke="black"/>
<path d="M49.308 13.7024C49.1756 13.7024 49.043 13.65 48.9421 13.5452L43.8183 8.228C43.6161 8.01821 43.6161 7.67811 43.8183 7.46842C44.0202 7.25874 44.3481 7.25874 44.5501 7.46842L49.6739 12.7856C49.8761 12.9954 49.8761 13.3355 49.6739 13.5452C49.573 13.65 49.4404 13.7024 49.308 13.7024Z" fill="black" stroke="black"/>
<path d="M50.8867 37.8993H42.6055C40.8931 37.8993 39.5 36.4536 39.5 34.6766C39.5 32.8997 40.8931 31.454 42.6055 31.454H53.9922C55.1338 31.454 56.0625 30.4902 56.0625 29.3055V29.1436C56.0625 27.9589 55.1338 26.9951 53.9922 26.9951H31.3748C31.089 26.9951 30.8573 26.7546 30.8573 26.458C30.8573 26.1614 31.089 25.9209 31.3748 25.9209H53.9922C55.7045 25.9209 57.0977 27.3666 57.0977 29.1436V29.3055C57.0977 31.0825 55.7045 32.5282 53.9922 32.5282H42.6055C41.4639 32.5282 40.5352 33.492 40.5352 34.6766C40.5352 35.8613 41.4639 36.8251 42.6055 36.8251H50.8867C51.1726 36.8251 51.4043 37.0655 51.4043 37.3622C51.4043 37.6589 51.1726 37.8993 50.8867 37.8993Z" fill="black" stroke="black"/>
<path d="M31.2188 38.4364H15.6914C15.4056 38.4364 15.1738 38.196 15.1738 37.8993C15.1738 37.6026 15.4056 37.3622 15.6914 37.3622H31.2188C31.5046 37.3622 31.7363 37.6026 31.7363 37.8993C31.7363 38.196 31.5046 38.4364 31.2188 38.4364Z" fill="black" stroke="black"/>
<path d="M31.2188 35.2137H15.6914C15.4056 35.2137 15.1738 34.9733 15.1738 34.6766C15.1738 34.3799 15.4056 34.1395 15.6914 34.1395H31.2188C31.5046 34.1395 31.7363 34.3799 31.7363 34.6766C31.7363 34.9733 31.5046 35.2137 31.2188 35.2137Z" fill="black" stroke="black"/>
<path d="M31.2188 31.9911H15.6914C15.4056 31.9911 15.1738 31.7507 15.1738 31.454C15.1738 31.1574 15.4056 30.9169 15.6914 30.9169H31.2188C31.5046 30.9169 31.7363 31.1574 31.7363 31.454C31.7363 31.7507 31.5046 31.9911 31.2188 31.9911Z" fill="black" stroke="black"/>
<path d="M33.8242 55.0868V55.5868H34.3242H44.6758H45.1758V55.0868V49.7157V49.2157H44.6758H34.3242H33.8242V49.7157V55.0868ZM45.1934 55.661H33.8066C33.8062 55.661 33.8062 55.661 33.8062 55.661C33.8062 55.661 33.8062 55.661 33.8061 55.661C33.8056 55.6607 33.8035 55.6597 33.8007 55.6567C33.795 55.6509 33.7891 55.6403 33.7891 55.6239V49.1786C33.7891 49.1622 33.795 49.1516 33.8007 49.1457C33.8035 49.1428 33.8056 49.1418 33.8061 49.1415C33.8062 49.1415 33.806 49.1415 33.8066 49.1415H45.1934C45.1939 49.1415 45.1939 49.1415 45.1939 49.1415C45.1939 49.1415 45.1939 49.1415 45.1939 49.1415C45.1944 49.1418 45.1965 49.1428 45.1993 49.1457C45.2049 49.1516 45.2109 49.1622 45.2109 49.1786V55.6239C45.2109 55.6403 45.2049 55.6509 45.1993 55.6568C45.1965 55.6597 45.1944 55.6607 45.1939 55.661C45.1938 55.661 45.194 55.661 45.1934 55.661Z" fill="black" stroke="black"/>
<path d="M36.4121 55.0868V55.5868H36.9121H42.0879H42.5879V55.0868V49.7157V49.2157H42.0879H36.9121H36.4121V49.7157V55.0868ZM42.6055 55.661H36.3945C36.3941 55.661 36.3941 55.661 36.3941 55.661C36.3941 55.661 36.394 55.661 36.394 55.661C36.3935 55.6607 36.3914 55.6597 36.3886 55.6567C36.3829 55.6509 36.377 55.6403 36.377 55.6239V49.1786C36.377 49.1622 36.3829 49.1516 36.3886 49.1457C36.3914 49.1428 36.3935 49.1418 36.394 49.1415C36.3941 49.1415 36.3939 49.1415 36.3945 49.1415H42.6055C42.606 49.1415 42.606 49.1415 42.606 49.1415C42.606 49.1415 42.606 49.1415 42.606 49.1415C42.6065 49.1418 42.6086 49.1428 42.6114 49.1457C42.6171 49.1516 42.623 49.1622 42.623 49.1786V55.6239C42.623 55.6403 42.6171 55.6509 42.6114 55.6568C42.6086 55.6597 42.6065 55.6607 42.606 55.661C42.6059 55.661 42.6061 55.661 42.6055 55.661Z" fill="black" stroke="black"/>
<path d="M46.7461 57.8094H32.2539C31.6912 57.8094 31.2012 57.3281 31.2012 56.6981C31.2012 56.0682 31.6912 55.5868 32.2539 55.5868H46.7461C47.3088 55.5868 47.7988 56.0682 47.7988 56.6981C47.7988 57.3281 47.3088 57.8094 46.7461 57.8094ZM32.2539 55.661C31.6751 55.661 31.2363 56.1434 31.2363 56.6981C31.2363 57.2528 31.6751 57.7352 32.2539 57.7352H46.7461C47.3249 57.7352 47.7637 57.2528 47.7637 56.6981C47.7637 56.1434 47.3249 55.661 46.7461 55.661H32.2539Z" fill="black" stroke="black"/>
</svg>
