<svg width="455" height="292" viewBox="0 0 455 292" fill="none" xmlns="http://www.w3.org/2000/svg">
<path d="M63.8056 232L7.67586 64.0906L32.3825 64.0906L83.9547 219.047L71.4814 219.047L124.973 64.0906L147.041 64.0906L199.332 219.047L187.339 219.047L239.631 64.0906L262.418 64.0906L206.289 232L181.102 232L132.169 88.3176L138.645 88.3176L89.4717 232L63.8056 232Z" fill="#2137FF"/>
<path d="M332.36 242.439C320.047 242.439 309.012 239.721 299.258 234.284C289.663 228.847 282.067 221.251 276.47 211.496C270.873 201.741 268.075 190.387 268.075 177.434C268.075 164.481 270.873 153.207 276.47 143.613C282.067 133.858 289.663 126.262 299.258 120.825C309.012 115.388 320.047 112.669 332.36 112.669C343.074 112.669 352.749 115.068 361.384 119.865C370.02 124.663 376.896 131.859 382.013 141.454C387.29 151.049 389.929 163.042 389.929 177.434C389.929 191.827 387.37 203.82 382.253 213.415C377.296 223.01 370.499 230.286 361.864 235.243C353.229 240.041 343.394 242.439 332.36 242.439ZM334.279 222.29C342.275 222.29 349.471 220.451 355.867 216.773C362.424 213.095 367.541 207.898 371.219 201.181C375.057 194.305 376.976 186.389 376.976 177.434C376.976 168.319 375.057 160.483 371.219 153.927C367.541 147.211 362.424 142.013 355.867 138.335C349.471 134.657 342.275 132.818 334.279 132.818C326.123 132.818 318.847 134.657 312.451 138.335C306.054 142.013 300.937 147.211 297.099 153.927C293.261 160.483 291.342 168.319 291.342 177.434C291.342 186.389 293.261 194.305 297.099 201.181C300.937 207.898 306.054 213.095 312.451 216.773C318.847 220.451 326.123 222.29 334.279 222.29ZM377.695 241L377.695 206.699L379.135 177.194L376.736 147.69L376.736 63.0161L399.763 63.0161L399.763 241L377.695 241Z" fill="#2137FF"/>
<path d="M430.368 235.23C426.541 235.23 423.262 233.932 420.529 231.335C417.796 228.602 416.429 225.186 416.429 221.086C416.429 216.987 417.796 213.639 420.529 211.042C423.262 208.446 426.541 207.148 430.368 207.148C434.057 207.148 437.2 208.446 439.797 211.042C442.53 213.639 443.896 216.987 443.896 221.086C443.896 225.186 442.53 228.602 439.797 231.335C437.2 233.932 434.057 235.23 430.368 235.23Z" fill="black"/>
<path d="M246.368 233.23C242.541 233.23 239.262 231.932 236.529 229.335C233.796 226.602 232.429 223.186 232.429 219.086C232.429 214.987 233.796 211.639 236.529 209.042C239.262 206.446 242.541 205.148 246.368 205.148C250.057 205.148 253.2 206.446 255.797 209.042C258.53 211.639 259.896 214.987 259.896 219.086C259.896 223.186 258.53 226.602 255.797 229.335C253.2 231.932 250.057 233.23 246.368 233.23Z" fill="black"/>
<rect x="241" y="63" width="157" height="19" fill="#2137FF"/>
</svg>
