<svg width="42" height="49" viewBox="0 0 42 49" fill="none" xmlns="http://www.w3.org/2000/svg">
<path d="M12.16 38.216C10.312 38.216 8.656 37.808 7.192 36.992C5.752 36.176 4.612 35.036 3.772 33.572C2.932 32.108 2.512 30.404 2.512 28.46C2.512 26.516 2.932 24.824 3.772 23.384C4.612 21.92 5.752 20.78 7.192 19.964C8.656 19.148 10.312 18.74 12.16 18.74C13.768 18.74 15.22 19.1 16.516 19.82C17.812 20.54 18.844 21.62 19.612 23.06C20.404 24.5 20.8 26.3 20.8 28.46C20.8 30.62 20.416 32.42 19.648 33.86C18.904 35.3 17.884 36.392 16.588 37.136C15.292 37.856 13.816 38.216 12.16 38.216ZM12.448 35.192C13.648 35.192 14.728 34.916 15.688 34.364C16.672 33.812 17.44 33.032 17.992 32.024C18.568 30.992 18.856 29.804 18.856 28.46C18.856 27.092 18.568 25.916 17.992 24.932C17.44 23.924 16.672 23.144 15.688 22.592C14.728 22.04 13.648 21.764 12.448 21.764C11.224 21.764 10.132 22.04 9.172 22.592C8.212 23.144 7.444 23.924 6.868 24.932C6.292 25.916 6.004 27.092 6.004 28.46C6.004 29.804 6.292 30.992 6.868 32.024C7.444 33.032 8.212 33.812 9.172 34.364C10.132 34.916 11.224 35.192 12.448 35.192ZM18.964 38L18.964 32.852L19.18 28.424L18.82 23.996L18.82 11.288L22.276 11.288L22.276 38L18.964 38Z" />
<path d="M24.5071 38.1846C23.9328 38.1846 23.4406 37.9897 23.0304 37.6001C22.6202 37.1899 22.4151 36.6772 22.4151 36.0619C22.4151 35.4466 22.6202 34.9441 23.0304 34.5545C23.4406 34.1648 23.9328 33.97 24.5071 33.97C25.0608 33.97 25.5325 34.1648 25.9222 34.5545C26.3324 34.9441 26.5375 35.4466 26.5375 36.0619C26.5375 36.6772 26.3324 37.1899 25.9222 37.6001C25.5325 37.9897 25.0608 38.1846 24.5071 38.1846Z" />
<path d="M34.5071 38.1846C33.9328 38.1846 33.4406 37.9897 33.0304 37.6001C32.6202 37.1899 32.4151 36.6772 32.4151 36.0619C32.4151 35.4466 32.6202 34.9441 33.0304 34.5545C33.4406 34.1648 33.9328 33.97 34.5071 33.97C35.0608 33.97 35.5325 34.1648 35.9222 34.5545C36.3324 34.9441 36.5375 35.4466 36.5375 36.0619C36.5375 36.6772 36.3324 37.1899 35.9222 37.6001C35.5325 37.9897 35.0608 38.1846 34.5071 38.1846Z"/>
<path d="M27.3829 38L27.3829 14.4274L18.1538 14.4274L18.1538 11.0818L40.419 11.0818L40.419 14.4274L31.1899 14.4274L31.1899 38L27.3829 38Z" />
 <style>
        path { fill: #000; }
        @media (prefers-color-scheme: dark) {
            path { fill: #2137FF; }
        }
    </style>
</svg>

